# xmcd
#
# Track frame offsets:
#	150
#	14098
#	27102
#	45668
#	62276
#	89023
#	103105
#	115866
#	140507
#	155914
#
# Disc length: 2339 seconds
#
# Revision: 1
# Processed by: cddbd v1.4PL0 Copyright (c) Steve Scherf et al.
# Submitted via: EasyCDDAExtractor 6.0.0.1
#
DISCID=8609210a
DTITLE=Stephen Stills
DYEAR=1900
DGENRE=
TTITLE0=Love The One You're With
TTITLE1=Do For The Others
TTITLE2=Church
TTITLE3=Old Times Good Times
TTITLE4=Go Back Home
TTITLE5=Get Yourself Down
TTITLE6=To A Flame
TTITLE7=Black Queen
TTITLE8=Cherokee
TTITLE9=We Are Not Helpless
EXTD=
EXTT0=
EXTT1=
EXTT2=
EXTT3=
EXTT4=
EXTT5=
EXTT6=
EXTT7=
EXTT8=
EXTT9=
PLAYORDER=
